<svg width="24" height="24" viewBox="0 0 24 24" fill="none" xmlns="http://www.w3.org/2000/svg">
<path fill-rule="evenodd" clip-rule="evenodd" d="M8.96546 6.4161L8.94754 6.41492C8.29642 6.38481 7.43214 7.11746 7.10252 7.66428C6.74089 8.15412 6.73408 8.80761 7.04378 9.54898L7.0926 9.66083C7.8786 11.5865 10.8112 14.4998 12.7437 15.3038L12.8521 15.3521C13.5356 15.6428 14.1635 15.6465 14.6772 15.3219L14.7358 15.2823L14.7182 15.293C15.2331 14.9981 15.9997 14.1137 15.9763 13.448C15.9527 13.1576 15.822 12.9293 15.6223 12.7249C15.5568 12.6579 15.4697 12.5777 15.3691 12.4911L15.2091 12.357C15.1811 12.3342 15.1525 12.3111 15.1235 12.2879L14.9447 12.1485C14.9143 12.1253 14.8838 12.1023 14.8531 12.0794L14.6695 11.9458C14.3654 11.73 14.0797 11.556 13.9408 11.5269C13.6232 11.461 13.4108 11.519 13.0885 11.6954L12.971 11.7618C12.7902 11.8655 12.7471 11.8773 12.694 11.8581C11.6717 11.4405 10.9502 10.7192 10.5255 9.68018C10.5192 9.66222 10.519 9.6424 10.5335 9.60438L10.5584 9.54896L10.6005 9.46978L10.644 9.39336C10.8601 9.01778 10.9356 8.79665 10.8639 8.45096C10.8435 8.35344 10.7522 8.1843 10.6254 7.98734L10.5087 7.81273C10.4881 7.78283 10.4669 7.75262 10.4454 7.72223L10.3118 7.53867C10.289 7.50805 10.2659 7.4775 10.2428 7.44714L10.1034 7.26842C10.0802 7.23937 10.0571 7.21078 10.0342 7.18276L9.90009 7.02267L9.77566 6.88266C9.73634 6.84002 9.69946 6.80175 9.66584 6.76886C9.46161 6.56936 9.23352 6.43905 8.96546 6.4161ZM8.87682 7.33093L8.89518 7.32965L8.88752 7.32808C8.90957 7.32997 8.96008 7.35882 9.02622 7.42343L9.09886 7.49962L9.18715 7.60029L9.28672 7.71947L9.44761 7.91991L9.60917 8.12848L9.80004 8.38444L9.87509 8.48952L9.93068 8.57138C9.95289 8.60551 9.96615 8.6287 9.96801 8.6376C9.9747 8.66987 9.97058 8.70272 9.94256 8.76491L9.90611 8.83795L9.83539 8.96381C9.60789 9.36024 9.53403 9.62853 9.67172 10.0091C10.1961 11.2932 11.0983 12.1951 12.3651 12.712C12.7338 12.8461 12.9918 12.7922 13.3436 12.6021L13.5624 12.4797C13.6688 12.4237 13.7118 12.4142 13.7542 12.423L13.7677 12.4285L13.8202 12.4603L13.902 12.5159L14.0665 12.6344L14.3323 12.8349L14.6075 13.0517L14.7912 13.2038L14.8917 13.292C14.9215 13.319 14.9471 13.3434 14.9677 13.3645C15.0323 13.4307 15.0613 13.4812 15.063 13.5019C15.0696 13.702 14.5737 14.2857 14.3079 14.4706L14.2245 14.524C13.9881 14.6933 13.6616 14.7009 13.2055 14.5077L13.1126 14.4664C12.3044 14.1299 11.2714 13.3518 10.3292 12.4433L10.0748 12.1925C9.15176 11.2629 8.34836 10.2313 7.98041 9.40913L7.93297 9.29835C7.7069 8.80072 7.68763 8.45832 7.83244 8.21803L7.86357 8.17132C7.94155 8.04558 8.14921 7.81584 8.35573 7.64078C8.57456 7.45527 8.77195 7.346 8.87682 7.33093Z" fill="#391484"/>
<g opacity="0.5">
<path fill-rule="evenodd" clip-rule="evenodd" d="M12.3666 5.95901L12.3132 5.95617C12.0841 5.9573 11.8871 6.13003 11.8612 6.36328C11.8333 6.61448 12.0143 6.84075 12.2655 6.86867C13.9776 7.05899 15.3298 8.41134 15.5223 10.126C15.5505 10.3771 15.777 10.5579 16.0281 10.5297C16.2793 10.5015 16.46 10.275 16.4318 10.0238C16.1917 7.88446 14.504 6.19661 12.3666 5.95901ZM12.4034 8.25283C12.1553 8.20447 11.915 8.36638 11.8667 8.61445C11.8183 8.86253 11.9802 9.10283 12.2283 9.15118C12.7401 9.25093 13.1398 9.6507 13.2396 10.1625C13.2879 10.4105 13.5282 10.5724 13.7763 10.5241C14.0244 10.4757 14.1863 10.2354 14.1379 9.98735C13.9669 9.10972 13.281 8.42389 12.4034 8.25283Z" fill="#391484"/>
</g>
<path d="M19.8366 12.8416C20.3573 8.57619 19.5864 5.88335 18.1958 4.66539L18.1966 4.66468C15.9522 2.58472 8.37252 2.27687 5.68742 4.7581C4.4816 5.97182 4.05687 7.75312 4.01032 9.95834C3.96378 12.1643 3.90851 16.2966 7.86561 17.4176H7.86925L7.86561 19.1295C7.86561 19.1295 7.8387 19.8231 8.29398 19.9625C8.8147 20.1267 9.05034 19.8047 10.67 17.9222C13.3784 18.1508 15.4584 17.6271 15.6947 17.5506C16.2416 17.3723 19.3362 16.9739 19.8366 12.8416ZM10.9369 16.7177C10.9369 16.7177 9.22271 18.7976 8.68961 19.3376C8.51507 19.5131 8.32379 19.4968 8.3267 19.1487C8.3267 18.9201 8.33979 16.3065 8.33979 16.3065C4.98487 15.3709 5.18269 11.8522 5.21906 10.0114C5.25542 8.16996 5.6016 6.66183 6.6227 5.64627C8.97834 3.49696 15.6235 3.97749 17.3166 5.52596C19.3864 7.31151 18.6496 12.3561 18.654 12.528C18.2286 15.9774 15.7209 16.1961 15.2598 16.3454C15.0627 16.4091 13.2336 16.867 10.9369 16.7177Z" fill="#391484"/>
</svg>
