<svg width="60" height="60" viewBox="0 0 60 60" fill="none" xmlns="http://www.w3.org/2000/svg">
<rect width="60" height="60" rx="25" fill="#391484"/>
<path fill-rule="evenodd" clip-rule="evenodd" d="M34.8971 16.6667L25.0535 16.6719C20.7893 16.6986 18 19.6499 18 24.0059V35.9942C18 40.2679 20.6784 43.1882 24.7905 43.3281L25.1212 43.3333L34.945 43.3294C39.2095 43.3027 42 40.3501 42 35.9942V24.0059C42 19.6255 39.1849 16.6667 34.8971 16.6667ZM25.0626 19.3385L34.8978 19.3334C37.6817 19.3334 39.3333 21.0694 39.3333 24.0059V35.9942C39.3333 38.9129 37.6959 40.6455 34.9361 40.6628L25.1011 40.6667C22.3174 40.6667 20.6667 38.9311 20.6667 35.9942V24.0059C20.6667 21.0871 22.3029 19.3559 25.0626 19.3385Z" fill="white"/>
<g opacity="0.5">
<path fill-rule="evenodd" clip-rule="evenodd" d="M23.3333 24.3333C23.3333 23.781 23.781 23.3333 24.3333 23.3333H27.6666C28.2189 23.3333 28.6666 23.781 28.6666 24.3333V25C28.6666 25.5523 28.2189 26 27.6666 26H24.3333C23.781 26 23.3333 25.5523 23.3333 25V24.3333ZM23.3333 29.6666C23.3333 29.1144 23.781 28.6666 24.3333 28.6666H35.6666C36.2189 28.6666 36.6666 29.1144 36.6666 29.6666V30.3333C36.6666 30.8856 36.2189 31.3333 35.6666 31.3333H24.3333C23.781 31.3333 23.3333 30.8856 23.3333 30.3333V29.6666ZM24.3333 34C23.781 34 23.3333 34.4477 23.3333 35V35.6667C23.3333 36.2189 23.781 36.6667 24.3333 36.6667H35.6666C36.2189 36.6667 36.6666 36.2189 36.6666 35.6667V35C36.6666 34.4477 36.2189 34 35.6666 34H24.3333Z" fill="white"/>
</g>
</svg>
