<svg width="32" height="32" viewBox="0 0 32 32" fill="none" xmlns="http://www.w3.org/2000/svg">
<path fill-rule="evenodd" clip-rule="evenodd" d="M20.8971 2.66669L11.0535 2.6719C6.78925 2.69863 4 5.64991 4 10.0059V21.9942C4 26.2679 6.67837 29.1882 10.7905 29.3281L11.1212 29.3333L20.945 29.3294C25.2095 29.3027 28 26.3501 28 21.9942V10.0059C28 5.62548 25.1849 2.66669 20.8971 2.66669ZM11.0626 5.33855L20.8978 5.33336C23.6817 5.33336 25.3333 7.06937 25.3333 10.0059V21.9942C25.3333 24.9129 23.6959 26.6455 20.9361 26.6628L11.1011 26.6667C8.31743 26.6667 6.66666 24.9311 6.66666 21.9942V10.0059C6.66666 7.08712 8.30287 5.35586 11.0626 5.33855Z" fill="white"/>
<g opacity="0.5">
<path fill-rule="evenodd" clip-rule="evenodd" d="M9.33325 10.3333C9.33325 9.78103 9.78097 9.33331 10.3333 9.33331H13.6666C14.2189 9.33331 14.6666 9.78103 14.6666 10.3333V11C14.6666 11.5523 14.2189 12 13.6666 12H10.3333C9.78097 12 9.33325 11.5523 9.33325 11V10.3333ZM9.33325 15.6666C9.33325 15.1144 9.78097 14.6666 10.3333 14.6666H21.6666C22.2189 14.6666 22.6666 15.1144 22.6666 15.6666V16.3333C22.6666 16.8856 22.2189 17.3333 21.6666 17.3333H10.3333C9.78097 17.3333 9.33325 16.8856 9.33325 16.3333V15.6666ZM10.3333 20C9.78097 20 9.33325 20.4477 9.33325 21V21.6667C9.33325 22.2189 9.78097 22.6667 10.3333 22.6667H21.6666C22.2189 22.6667 22.6666 22.2189 22.6666 21.6667V21C22.6666 20.4477 22.2189 20 21.6666 20H10.3333Z" fill="white"/>
</g>
</svg>
