<svg width="24" height="24" viewBox="0 0 24 24" fill="none" xmlns="http://www.w3.org/2000/svg">
<g clip-path="url(#clip0_120_613)">
<path fill-rule="evenodd" clip-rule="evenodd" d="M7.3871 15.7903C7.77939 16.0953 8.34662 16.0676 8.70711 15.7071L8.7903 15.6129C9.09532 15.2206 9.06759 14.6534 8.70711 14.2929L7.41466 13L18 13L18.1166 12.9933C18.614 12.9355 19 12.5128 19 12C19 11.4477 18.5523 11 18 11L7.41466 11L8.70711 9.70711L8.7903 9.6129C9.09532 9.22061 9.06759 8.65338 8.70711 8.29289C8.31658 7.90237 7.68342 7.90237 7.29289 8.29289L4.29289 11.2929L4.2097 11.3871C3.90468 11.7794 3.93241 12.3466 4.29289 12.7071L7.29289 15.7071L7.3871 15.7903Z" fill="white"/>
</g>
<defs>
<clipPath id="clip0_120_613">
<rect width="24" height="24" fill="white" transform="translate(24 24) rotate(-180)"/>
</clipPath>
</defs>
</svg>
