<svg width="97" height="194" viewBox="0 0 97 194" fill="none" xmlns="http://www.w3.org/2000/svg">
<path d="M6.55298 6.55298L2.05298 2.05298" stroke="#E7E5EA" stroke-width="4" stroke-linecap="round"/>
<path d="M6.55292 26.5529L2 23.1221" stroke="#E7E5EA" stroke-width="4" stroke-linecap="round"/>
<path d="M6.55292 46.553L2.05054 44.0573" stroke="#E7E5EA" stroke-width="4" stroke-linecap="round"/>
<path d="M6.55301 66.553L2.04175 65.0872" stroke="#E7E5EA" stroke-width="4" stroke-linecap="round"/>
<path d="M6.55294 86.5529L2.05005 86.0796" stroke="#E7E5EA" stroke-width="4" stroke-linecap="round"/>
<path d="M6.55302 106.553L2.05908 107.105" stroke="#E7E5EA" stroke-width="4" stroke-linecap="round"/>
<path d="M6.55286 126.553L2.06787 128.097" stroke="#E7E5EA" stroke-width="4" stroke-linecap="round"/>
<path d="M6.55287 146.553L2.09473 149.127" stroke="#E7E5EA" stroke-width="4" stroke-linecap="round"/>
<path d="M6.5529 166.553L2.06055 170.063" stroke="#E7E5EA" stroke-width="4" stroke-linecap="round"/>
<path d="M6.55298 186.553L2.05298 191.053" stroke="#E7E5EA" stroke-width="4" stroke-linecap="round"/>
<path d="M26.553 6.5529L23.0432 2.06055" stroke="#E7E5EA" stroke-width="4" stroke-linecap="round"/>
<path d="M26.553 26.553L23.053 23.053" stroke="#E7E5EA" stroke-width="4" stroke-linecap="round"/>
<path d="M26.5529 46.5529L23.0295 44.0858" stroke="#E7E5EA" stroke-width="4" stroke-linecap="round"/>
<path d="M26.553 66.5529L23.0479 65.0651" stroke="#E7E5EA" stroke-width="4" stroke-linecap="round"/>
<path d="M26.5529 86.5529L23.0518 86.0609" stroke="#E7E5EA" stroke-width="4" stroke-linecap="round"/>
<path d="M26.5528 106.553L23.0608 107.106" stroke="#E7E5EA" stroke-width="4" stroke-linecap="round"/>
<path d="M26.5529 126.553L23.0742 128.102" stroke="#E7E5EA" stroke-width="4" stroke-linecap="round"/>
<path d="M26.553 146.553L23.0732 149.081" stroke="#E7E5EA" stroke-width="4" stroke-linecap="round"/>
<path d="M26.553 166.553L23.053 170.053" stroke="#E7E5EA" stroke-width="4" stroke-linecap="round"/>
<path d="M26.5529 186.553L23.1221 191.106" stroke="#E7E5EA" stroke-width="4" stroke-linecap="round"/>
<path d="M46.5529 6.55287L43.979 2.09473" stroke="#E7E5EA" stroke-width="4" stroke-linecap="round"/>
<path d="M46.5528 26.553L44.0247 23.0732" stroke="#E7E5EA" stroke-width="4" stroke-linecap="round"/>
<path d="M46.553 46.553L44.053 44.053" stroke="#E7E5EA" stroke-width="4" stroke-linecap="round"/>
<path d="M46.553 66.553L44.0281 65.0952" stroke="#E7E5EA" stroke-width="4" stroke-linecap="round"/>
<path d="M46.553 86.5529L44.0503 86.0665" stroke="#E7E5EA" stroke-width="4" stroke-linecap="round"/>
<path d="M46.5529 106.553L44.0591 107.083" stroke="#E7E5EA" stroke-width="4" stroke-linecap="round"/>
<path d="M46.553 126.553L44.054 128.055" stroke="#E7E5EA" stroke-width="4" stroke-linecap="round"/>
<path d="M46.553 146.553L44.053 149.053" stroke="#E7E5EA" stroke-width="4" stroke-linecap="round"/>
<path d="M46.553 166.553L44.0859 170.076" stroke="#E7E5EA" stroke-width="4" stroke-linecap="round"/>
<path d="M46.5528 186.553L44.0571 191.055" stroke="#E7E5EA" stroke-width="4" stroke-linecap="round"/>
<path d="M66.5529 6.55286L65.0085 2.06787" stroke="#E7E5EA" stroke-width="4" stroke-linecap="round"/>
<path d="M66.553 26.5529L65.0042 23.0742" stroke="#E7E5EA" stroke-width="4" stroke-linecap="round"/>
<path d="M66.5528 46.5529L65.0513 44.0538" stroke="#E7E5EA" stroke-width="4" stroke-linecap="round"/>
<path d="M66.553 66.553L65.053 65.053" stroke="#E7E5EA" stroke-width="4" stroke-linecap="round"/>
<path d="M66.5528 86.5529L65.0491 86.0643" stroke="#E7E5EA" stroke-width="4" stroke-linecap="round"/>
<path d="M66.5529 106.553L65.0579 107.068" stroke="#E7E5EA" stroke-width="4" stroke-linecap="round"/>
<path d="M66.553 126.553L65.053 128.053" stroke="#E7E5EA" stroke-width="4" stroke-linecap="round"/>
<path d="M66.553 146.553L65.0952 149.078" stroke="#E7E5EA" stroke-width="4" stroke-linecap="round"/>
<path d="M66.5528 166.553L65.0649 170.058" stroke="#E7E5EA" stroke-width="4" stroke-linecap="round"/>
<path d="M66.553 186.553L65.0872 191.064" stroke="#E7E5EA" stroke-width="4" stroke-linecap="round"/>
<path d="M86.553 6.5529L86.0012 2.05896" stroke="#E7E5EA" stroke-width="4" stroke-linecap="round"/>
<path d="M86.5529 26.5529L85.9998 23.0609" stroke="#E7E5EA" stroke-width="4" stroke-linecap="round"/>
<path d="M86.5529 46.5529L86.0228 44.0591" stroke="#E7E5EA" stroke-width="4" stroke-linecap="round"/>
<path d="M86.5528 66.5529L86.038 65.0579" stroke="#E7E5EA" stroke-width="4" stroke-linecap="round"/>
<path d="M86.553 86.553L86.053 86.053" stroke="#E7E5EA" stroke-width="4" stroke-linecap="round"/>
<path d="M86.553 106.553L86.053 107.053" stroke="#E7E5EA" stroke-width="4" stroke-linecap="round"/>
<path d="M86.5529 126.553L86.0643 128.057" stroke="#E7E5EA" stroke-width="4" stroke-linecap="round"/>
<path d="M86.5528 146.553L86.0663 149.056" stroke="#E7E5EA" stroke-width="4" stroke-linecap="round"/>
<path d="M86.5529 166.553L86.0609 170.054" stroke="#E7E5EA" stroke-width="4" stroke-linecap="round"/>
<path d="M86.553 186.553L86.0798 191.056" stroke="#E7E5EA" stroke-width="4" stroke-linecap="round"/>
</svg>
