<svg width="24" height="24" viewBox="0 0 24 24" fill="none" xmlns="http://www.w3.org/2000/svg">
<path fill-rule="evenodd" clip-rule="evenodd" d="M14.8415 5.1983L5.07438 9.53924C4.4608 9.81194 3.97292 10.3064 3.70849 10.9236C3.12946 12.2751 3.75568 13.8402 5.1072 14.4192L7.13712 15.2889C7.84542 15.5923 8.40979 16.1567 8.71325 16.865L9.58182 18.8923C9.84611 19.5092 10.3337 20.0034 10.947 20.2761C12.29 20.873 13.8627 20.2683 14.4597 18.9253L18.8013 9.15832C19.1461 8.38259 19.1461 7.49708 18.8013 6.72132C18.1284 5.20727 16.3555 4.52539 14.8415 5.1983ZM16.9737 7.5336C17.0886 7.79218 17.0886 8.08735 16.9737 8.34593L12.6321 18.1129C12.4838 18.4465 12.093 18.5968 11.7594 18.4485C11.607 18.3808 11.4859 18.258 11.4202 18.1047L10.5516 16.0774C10.0459 14.8969 9.10525 13.9563 7.92474 13.4505L5.89482 12.5808C5.55861 12.4368 5.40283 12.0474 5.54688 11.7112C5.61266 11.5577 5.73402 11.4347 5.88666 11.3669L15.6538 7.02592C16.1224 6.81764 16.6654 6.99875 16.9202 7.42976L16.9737 7.5336Z" fill="#391484"/>
<g opacity="0.5">
<path fill-rule="evenodd" clip-rule="evenodd" d="M12.2929 10.2929C12.6834 9.90237 13.3166 9.90237 13.7071 10.2929C14.0676 10.6534 14.0953 11.2206 13.7903 11.6129L13.7071 11.7071L9.70711 15.7071C9.31658 16.0976 8.68342 16.0976 8.29289 15.7071C7.93241 15.3466 7.90468 14.7794 8.2097 14.3871L8.29289 14.2929L12.2929 10.2929Z" fill="#391484"/>
</g>
</svg>
