<svg width="60" height="60" viewBox="0 0 60 60" fill="none" xmlns="http://www.w3.org/2000/svg">
<rect width="60" height="60" rx="25" fill="white"/>
<path fill-rule="evenodd" clip-rule="evenodd" d="M22.9053 16.6731L22.8531 16.6697C20.956 16.582 18.4379 18.7166 17.4775 20.3098C16.4239 21.7369 16.4041 23.6409 17.3064 25.8009L17.4486 26.1268C19.7387 31.7373 28.283 40.2254 33.9134 42.5679L34.2291 42.7086C36.2205 43.5555 38.0501 43.5663 39.5466 42.6207L39.7174 42.5053L39.6663 42.5365C41.1664 41.6773 43.4 39.1004 43.3316 37.1608C43.263 36.3149 42.8822 35.6497 42.3002 35.0541C42.1096 34.8588 41.8557 34.6253 41.5626 34.3729L41.0965 33.9824C41.0149 33.9157 40.9316 33.8485 40.8469 33.7809L40.3261 33.3747C40.2377 33.3073 40.1486 33.2401 40.0593 33.1736L39.5242 32.7842C38.6382 32.1555 37.8059 31.6485 37.4012 31.5638C36.4758 31.3718 35.8571 31.5406 34.918 32.0546L34.5757 32.248C34.0489 32.5502 33.9232 32.5847 33.7686 32.5286C30.7899 31.312 28.6878 29.2106 27.4506 26.1832C27.4322 26.1309 27.4318 26.0731 27.4738 25.9623L27.5463 25.8009L27.6691 25.5702L27.7958 25.3475C28.4254 24.2533 28.6454 23.609 28.4365 22.6018C28.3771 22.3177 28.1112 21.8249 27.7415 21.251L27.4016 20.7423C27.3415 20.6552 27.2799 20.5672 27.2171 20.4786L26.8279 19.9438C26.7614 19.8546 26.6942 19.7656 26.6268 19.6771L26.2206 19.1564C26.1531 19.0718 26.0858 18.9885 26.0192 18.9069L25.6284 18.4404L25.2658 18.0325C25.1513 17.9083 25.0439 17.7968 24.9459 17.7009C24.3509 17.1197 23.6863 16.74 22.9053 16.6731ZM22.6466 19.3384L22.7001 19.3347L22.6777 19.3301C22.742 19.3356 22.8891 19.4196 23.0819 19.6079L23.2935 19.8299L23.5508 20.1232L23.8409 20.4704L24.3096 21.0544L24.7803 21.6621L25.3364 22.4078L25.5551 22.714L25.7171 22.9525C25.7817 23.0519 25.8204 23.1195 25.8258 23.1454C25.8453 23.2395 25.8333 23.3352 25.7517 23.5164L25.6455 23.7292L25.4394 24.0959C24.7766 25.2509 24.5614 26.0326 24.9626 27.1413C26.4903 30.8826 29.1189 33.5103 32.81 35.0164C33.8839 35.4072 34.6356 35.25 35.6607 34.6961L36.2983 34.3397C36.6084 34.1763 36.7335 34.1487 36.8571 34.1743L36.8962 34.1905L37.0494 34.283L37.2877 34.445L37.7668 34.7904L38.5413 35.3745L39.3431 36.0061L39.8785 36.4493L40.1713 36.7063C40.258 36.785 40.3327 36.8561 40.3926 36.9174C40.581 37.1102 40.6653 37.2575 40.6703 37.3179C40.6895 37.9008 39.2446 39.6013 38.4702 40.14L38.2272 40.2956C37.5386 40.7889 36.5872 40.811 35.2585 40.2482L34.9877 40.1278C32.6331 39.1477 29.6233 36.8804 26.8783 34.2335L26.1369 33.5029C23.4476 30.7944 21.1069 27.7887 20.0349 25.3933L19.8966 25.0705C19.238 23.6207 19.1818 22.6231 19.6037 21.923L19.6944 21.7869C19.9216 21.4206 20.5266 20.7512 21.1283 20.2411C21.7659 19.7007 22.341 19.3823 22.6466 19.3384Z" fill="#391484"/>
<g opacity="0.5">
<path fill-rule="evenodd" clip-rule="evenodd" d="M32.8139 15.3415L32.6583 15.3333C31.9908 15.3365 31.4169 15.8398 31.3414 16.5194C31.26 17.2512 31.7874 17.9105 32.5192 17.9919C37.5076 18.5464 41.4474 22.4865 42.0082 27.4821C42.0904 28.2139 42.7502 28.7405 43.482 28.6584C44.2138 28.5762 44.7404 27.9164 44.6582 27.1846C43.9585 20.9514 39.0412 16.0338 32.8139 15.3415ZM32.9217 22.0246C32.1989 21.8838 31.4988 22.3555 31.3579 23.0783C31.217 23.801 31.6887 24.5012 32.4115 24.6421C33.9025 24.9327 35.0673 26.0974 35.3579 27.5884C35.4988 28.3112 36.1989 28.7829 36.9217 28.6421C37.6445 28.5012 38.1162 27.801 37.9753 27.0783C37.4769 24.5213 35.4787 22.523 32.9217 22.0246Z" fill="#391484"/>
</g>
</svg>
