<svg width="60" height="60" viewBox="0 0 60 60" fill="none" xmlns="http://www.w3.org/2000/svg">
<rect width="60" height="60" rx="25" fill="white"/>
<path fill-rule="evenodd" clip-rule="evenodd" d="M38.5347 18.7928C35.8001 16.514 31.7577 16.7855 29.3524 19.4094L19.5252 30.13C18.3982 31.3595 17.7729 32.9669 17.7729 34.6348L17.7729 37.8936C17.7729 40.1027 19.5638 41.8936 21.7729 41.8936L24.6222 41.8936C26.5823 41.8936 28.4431 41.031 29.7098 39.5352L39.4586 28.0227C41.6944 25.3398 41.4021 21.3877 38.8448 19.0595L38.5347 18.7928ZM37.41 26.3156L27.6748 37.8119C26.9147 38.7094 25.7983 39.2269 24.6222 39.2269H21.7729C21.0365 39.2269 20.4396 38.63 20.4396 37.8936V34.6348C20.4396 33.6341 20.8147 32.6697 21.491 31.9319L31.3182 21.2114C32.7613 19.637 35.1868 19.4741 36.8275 20.8414L36.9193 20.9179C38.5454 22.2729 38.765 24.6895 37.41 26.3156Z" fill="#391484"/>
<g opacity="0.5">
<rect x="32.6667" y="39.3333" width="10.6667" height="2.66667" rx="1" fill="#391484"/>
</g>
</svg>
